# AST/ASF file generated using VICON BodyLanguage
# -----------------------------------------------
:version 1.10
:name VICON
:units
  mass 1.0
  length 0.45
  angle deg
:documentation
   .ast/.asf automatically generated from VICON data using
   VICON BodyBuilder and BodyLanguage model FoxedUp or BRILLIANT.MOD
:root
   order TX TY TZ RX RY RZ
   axis XYZ
   position 0 0 0  
   orientation 0 0 0 
:bonedata
  begin
     id 1 
     name lhipjoint
     direction 0.573633 -0.743009 0.344793 
     length 2.46257 
     axis 0 0 0  XYZ
  end
  begin
     id 2 
     name lfemur
     direction 0.34202 -0.939693 0  
     length 7.3842  
     axis 0 0 20  XYZ
    dof rx ry rz
    limits (-160.0 20.0)
           (-70.0 70.0)
           (-60.0 70.0)
  end
  begin
     id 3 
     name ltibia
     direction 0.34202 -0.939693 0   
     length 7.50407   
     axis 0 0 20   XYZ
    dof rx
    limits (-10.0 170.0)
  end
  begin
     id 4 
     name lfoot
     direction 0.110749 -0.304281 0.946123   
     length 1.95925   
     axis -90 7.62852e-016 20   XYZ
    dof rx rz
    limits (-45.0 90.0)
           (-70.0 20.0)
  end
  begin
     id 5 
     name ltoes
     direction 1.53554e-011 -4.21843e-011 1   
     length 0.978318   
     axis -90 7.62852e-016 20   XYZ
    dof rx
    limits (-90.0 20.0)
  end
  begin
     id 6 
     name rhipjoint
     direction -0.488109 -0.791693 0.367385   
     length 2.31113  
     axis 0 0 0  XYZ 
  end
  begin
     id 7 
     name rfemur
     direction -0.34202 -0.939693 0   
     length 7.40965   
     axis 0 0 -20   XYZ
    dof rx ry rz
    limits (-160.0 20.0)
           (-70.0 70.0)
           (-70.0 60.0)
  end
  begin
     id 8 
     name rtibia
     direction -0.34202 -0.939693 0   
     length 7.55548   
     axis 0 0 -20   XYZ
    dof rx
    limits (-10.0 170.0)
 end
 begin
     id 9 
     name rfoot
     direction -0.127594 -0.350561 0.927808   
     length 2.07199  
     axis -90 -7.62852e-016 -20   XYZ
    dof rx rz
    limits (-45.0 90.0)
           (-20.0 70.0)
  end
  begin
     id 10 
     name rtoes
     direction -1.53542e-011 -4.21909e-011 1   
     length 1.02667   
     axis -90 -7.62852e-016 -20   XYZ
    dof rx
    limits (-90.0 20.0)
  end
  begin
     id 11 
     name lowerback
     direction -0.0103342 0.997298 -0.0727278   
     length 2.02836   
     axis 0 0 0   XYZ
    dof rx ry rz
    limits (-20.0 45.0)
           (-30.0 30.0)
           (-30.0 30.0)
  end
  begin
     id 12 
     name upperback
     direction 0.0171146 0.999786 -0.011606   
     length 2.03179   
     axis 0 0 0   XYZ
    dof rx ry rz
    limits (-20.0 45.0)
           (-30.0 30.0)
           (-30.0 30.0)
  end
  begin
     id 13 
     name thorax
     direction 0.0216927 0.999513 0.0224343   
     length 2.03882   
     axis 0 0 0   XYZ
    dof rx ry rz
    limits (-20.0 45.0)
           (-30.0 30.0)
           (-30.0 30.0)
  end
  begin
     id 14 
     name lowerneck
     direction 0.000989287 0.993907 0.110221   
     length 1.75428   
     axis 0 0 0   XYZ
    dof rx ry rz
    limits (-20.0 45.0)
           (-30.0 30.0)
           (-30.0 30.0)
  end
  begin
     id 15 
     name upperneck
     direction -0.0172474 0.994813 -0.100253   
     length 1.77058   
     axis 0 0 0   XYZ
    dof rx ry rz
    limits (-20.0 45.0)
           (-30.0 30.0)
           (-30.0 30.0)
  end
  begin
     id 16
     name head
     direction -0.00486455 0.99894 -0.0457663  
     length 1.77427  
     axis 0 0 0   XYZ
    dof rx ry rz
    limits (-20.0 45.0)
           (-30.0 30.0)
           (-30.0 30.0)
  end
  begin
     id 17 
     name lclavicle
     direction 0.927314 0.333734 -0.169441  
     length 3.97584  
     axis 0 0 0   XYZ
    dof ry rz
    limits (-20.0 10.0)
           (0.0 20.0)
  end
  begin
     id 18 
     name lhumerus
     direction 1 -4.48965e-011 -3.25313e-028   
     length 4.76468   
     axis 180 -30 -90   XYZ
    dof rx ry rz
    limits (-60.0 90.0)
           (-90.0 90.0)
           (-90.0 90.0)
  end
  begin
     id 19
     name lradius
     direction 1 -4.48969e-011 -2.8465e-028   
     length 3.52712   
     axis -180 -30 -90   XYZ
    dof rx
    limits (-10.0 170.0)
  end
  begin
     id 20
     name lwrist
     direction 1 -4.4896e-011 -7.78665e-028   
     length 1.76356   
     axis 1.91374e-015 90 90   XYZ
    dof ry
    limits (-180.0 0.0)
 end
  begin
     id 21 
     name lhand
     direction 1 -4.48959e-011 -1.55733e-027   
     length 0.859564   
     axis 9.9371e-016 90 90   XYZ
    dof rx rz
    limits (-90.0 90.0)
           (-45.0 45.0)
  end
  begin
     id 22 
     name lfingers
     direction 1 -4.48965e-011 -3.11466e-027   
     length 0.693002   
     axis 1.98742e-015 90 90   XYZ
    dof rx
    limits (0.0 90.0)
  end
  begin
     id 23
     name lthumb
     direction 0.707107 -6.34948e-011 0.707107   
     length 0.995017   
     axis -90 45 2.85299e-015   XYZ
    dof rx rz
    limits (-45.0 45.0)
           (-45.0 45.0)
  end
  begin
     id 24 
     name rclavicle
     direction -0.899388 0.348209 -0.264294   
     length 3.68366  
     axis 0 0 0   XYZ 
    dof ry rz
    limits (-10.0 20.0)
           (-20.0 0.0)
  end
  begin
     id 25 
     name rhumerus
     direction -1 -4.48965e-011 -3.01536e-027  
     length 4.90577   
     axis 180 30 90   XYZ
    dof rx ry rz
    limits (-90.0 60.0)
           (-90.0 90.0)
           (-90.0 90.0)
  end
  begin
     id 26 
     name rradius
     direction -1 -4.48966e-011 3.93291e-027   
     length 3.42692   
     axis -180 30 90   XYZ
    dof rx
    limits (-10.0 170.0)
  end
  begin
     id 27 
     name rwrist
     direction -1 -4.48969e-011 -7.78665e-028   
     length 1.71346   
     axis 1.91374e-015 -90 -90   XYZ
    dof ry
    limits (-180.0 0.0)
  end
  begin
     id 28
     name rhand
     direction -1 -4.48967e-011 -1.55733e-027   
     length 0.740957   
     axis 9.9371e-016 -90 -90   XYZ
    dof rx rz
    limits (-90.0 90.0)
           (-45.0 45.0)
  end
  begin
     id 29
     name rfingers
     direction -1 -4.48949e-011 -3.11466e-027   
     length 0.597378   
     axis 1.98742e-015 -90 -90   XYZ
    dof rx
    limits (0.0 90.0)
  end
  begin
     id 30
     name rthumb
     direction -0.707107 -6.34931e-011 0.707107   
     length 0.857719   
     axis -90 -45 -2.85299e-015   XYZ
    dof rx rz
    limits (-45.0 45.0)
           (-45.0 45.0)
  end
:hierarchy
  begin
    root lhipjoint rhipjoint lowerback
    lhipjoint lfemur
    lfemur ltibia
    ltibia lfoot
    lfoot ltoes
    rhipjoint rfemur
    rfemur rtibia
    rtibia rfoot
    rfoot rtoes
    lowerback upperback
    upperback thorax
    thorax lowerneck lclavicle rclavicle
    lowerneck upperneck
    upperneck head
    lclavicle lhumerus
    lhumerus lradius
    lradius lwrist
    lwrist lhand lthumb
    lhand lfingers
    rclavicle rhumerus
    rhumerus rradius
    rradius rwrist
    rwrist rhand rthumb
    rhand rfingers
  end

#!OML:ASF E:\I on waltz\AllaLogoMonkeySwing\Project 1\Capture day 1\Session 1\Subject1.ASF
:FULLY-SPECIFIED
:DEGREES
80
root 1.20368 9.24789 -1.18971 -15.6658 1.05383 -1.15725
lowerback 44.4675 2.56549 -3.21039
upperback 11.4761 1.72596 -0.0406803
thorax -7.89214 0.779527 0.864575
lowerneck -5.92075 -0.180202 -3.88149
upperneck -3.36995 0.0450643 4.88066
head -0.0464297 0.085877 2.19991
rclavicle 6.75868e-015 9.54166e-015
rhumerus -16.2493 -10.4848 -83.6019
rradius 67.2168
rwrist -9.81047
rhand -8.09868 -37.7436
rfingers 7.12502
rthumb 17.8139 -66.9477
lclavicle 6.75868e-015 9.54166e-015
lhumerus -19.2374 10.1801 85.2713
lradius 75.0623
lwrist 16.0678
lhand -12.2045 -17.9969
lfingers 7.12502
lthumb 13.86 11.5212
rfemur -81.2208 -19.1241 26.9167
rtibia 117.055
rfoot -21.2481 -0.912278
rtoes 23.4086
lfemur -78.9032 19.7115 -19.5303
ltibia 117.373
lfoot -28.6418 -12.9992
ltoes -11.5652
81
root 1.20267 9.2096 -1.20478 -16.4602 0.945364 -0.843944
lowerback 43.0126 2.5189 -3.27032
upperback 11.4083 1.70792 -0.0506958
thorax -7.57195 0.772835 0.916976
lowerneck -5.8731 -0.10892 -3.93696
upperneck -3.17769 0.134728 4.72182
head 0.00138856 0.130593 2.15942
rclavicle -6.75868e-015 1.39149e-014
rhumerus -16.8306 -10.3443 -83.6705
rradius 68.2703
rwrist -9.46528
rhand -8.83885 -36.1266
rfingers 7.12502
rthumb 17.1016 -65.3939
lclavicle -6.75868e-015 1.39149e-014
lhumerus -20.1127 9.8839 85.4298
lradius 76.4306
lwrist 16.4332
lhand -12.731 -17.6843
lfingers 7.12502
lthumb 13.3525 11.8679
rfemur -80.6441 -19.2682 26.4603
rtibia 117.256
rfoot -21.2641 -0.675115
rtoes 23.4729
lfemur -78.1817 20.023 -19.5948
ltibia 117.52
lfoot -28.6137 -13.0607
ltoes -11.5484
82
root 1.2025 9.179 -1.22022 -17.2195 0.812925 -0.504331
lowerback 41.5547 2.50889 -3.37846
upperback 11.3756 1.7169 -0.0570976
thorax -7.19195 0.776627 0.988361
lowerneck -5.82984 -0.0274286 -3.90664
upperneck -3.08069 0.236245 4.55289
head 0.0194905 0.18003 2.10017
rclavicle -1.98785e-016 -3.18055e-015
rhumerus -17.2932 -10.2768 -83.7767
rradius 69.3167
rwrist -8.65961
rhand -8.32084 -36.5826
rfingers 7.12502
rthumb 17.6001 -65.806
lclavicle -1.98785e-016 -3.18055e-015
lhumerus -20.8683 9.58196 85.5917
lradius 77.7811
lwrist 16.8249
lhand -13.2871 -17.5776
lfingers 7.12502
lthumb 12.8164 12.0089
rfemur -80.0009 -19.3685 25.9631
rtibia 117.39
rfoot -21.337 -0.420886
rtoes 23.778
lfemur -77.4267 20.38 -19.6899
ltibia 117.61
lfoot -28.6643 -13.0397
ltoes -11.9842
83
root 1.20265 9.14551 -1.2304 -17.933 0.624135 -0.197082
lowerback 40.0992 2.51892 -3.47272
upperback 11.3854 1.76023 -0.0484142
thorax -6.74665 0.794377 1.05721
lowerneck -5.87336 0.0115442 -3.73871
upperneck -3.08377 0.276954 4.2246
head 0.0234662 0.197595 1.96305
rclavicle 8.94531e-015 -4.37326e-015
rhumerus -17.6106 -10.2534 -83.9168
rradius 70.4258
rwrist -7.75647
rhand -8.06908 -37.3861
rfingers 7.12502
rthumb 17.8424 -66.5876
lclavicle 8.94531e-015 -4.37326e-015
lhumerus -21.5025 9.36377 85.7705
lradius 79.0306
lwrist 17.1625
lhand -13.7028 -17.698
lfingers 7.12502
lthumb 12.4156 11.9133
rfemur -79.4488 -19.4047 25.5494
rtibia 117.543
rfoot -21.338 -0.24454
rtoes 24.1982
lfemur -76.7515 20.8438 -19.7325
ltibia 117.724
lfoot -28.7656 -13.0658
ltoes -12.3819
84
root 1.19393 9.11698 -1.26234 -18.968 0.787358 -0.0364143
lowerback 39.5079 2.44704 -3.54455
upperback 11.3199 1.68672 0.0716848
thorax -6.63849 0.75716 1.26076
lowerneck -5.96632 0.0513097 -3.47618
upperneck -3.12844 0.313607 3.69819
head 0.0227894 0.211568 1.74562
rclavicle -1.04362e-014 5.1684e-015
rhumerus -17.9226 -10.2434 -84.0194
rradius 71.6119
rwrist -6.93247
rhand -7.28415 -39.941
rfingers 7.12502
rthumb 18.5975 -69.072
lclavicle -1.04362e-014 5.1684e-015
lhumerus -22.1564 9.23539 86.0341
lradius 80.2235
lwrist 17.4823
lhand -14.0632 -17.7844
lfingers 7.12502
lthumb 12.0682 11.8476
rfemur -78.5069 -19.7867 25.0556
rtibia 117.583
rfoot -21.2079 0.0847224
rtoes 25.2712
lfemur -75.6858 20.8807 -19.5721
ltibia 117.68
lfoot -28.762 -13.2026
ltoes -12.5832
85
root 1.19477 9.10414 -1.29648 -19.9779 0.692871 0.173823
lowerback 38.8829 2.44683 -3.67119
upperback 11.3071 1.67932 0.190004
thorax -6.46061 0.747675 1.4663
lowerneck -6.19091 0.154827 -3.30551
upperneck -3.06412 0.442793 3.24072
head 0.0751876 0.27402 1.57131
rclavicle -5.1684e-015 2.18663e-015
rhumerus -18.1808 -10.0665 -84.1631
rradius 72.6002
rwrist -6.4052
rhand -9.35188 -37.5103
rfingers 7.12502
rthumb 16.6077 -66.8198
lclavicle -5.1684e-015 2.18663e-015
lhumerus -22.8383 9.243 86.3286
lradius 81.337
lwrist 17.7209
lhand -14.4753 -17.9564
lfingers 7.12502
lthumb 11.6708 11.6986
rfemur -77.4761 -19.8287 24.4811
rtibia 117.485
rfoot -21.0222 0.50212
rtoes 26.0971
lfemur -74.4953 21.1639 -19.4092
ltibia 117.559
lfoot -28.7596 -13.4109
ltoes -11.8637
86
root 1.19776 9.09251 -1.33173 -21.0188 0.513091 0.39506
lowerback 38.365 2.47016 -3.79379
upperback 11.3317 1.69565 0.287293
thorax -6.27276 0.748684 1.63696
lowerneck -6.56302 0.257209 -3.14437
upperneck -2.95557 0.575305 2.90443
head 0.166471 0.339375 1.44019
rclavicle -9.34288e-015 1.98785e-015
rhumerus -18.3854 -9.87827 -84.3725
rradius 73.4731
rwrist -5.96511
rhand -10.0362 -36.513
rfingers 7.12502
rthumb 15.9488 -65.8764
lclavicle -9.34288e-015 1.98785e-015
lhumerus -23.5044 9.28591 86.5985
lradius 82.3387
lwrist 17.7753
lhand -14.8331 -18.427
lfingers 7.12502
lthumb 11.3258 11.2472
rfemur -76.3152 -19.7665 23.9266
rtibia 117.353
rfoot -21.0029 0.679318
rtoes 26.0696
lfemur -73.2503 21.5189 -19.207
ltibia 117.411
lfoot -28.7267 -13.6459
ltoes -10.5593
87
root 1.19943 9.07533 -1.36926 -22.011 0.297317 0.479105
lowerback 37.9437 2.47945 -3.75318
upperback 11.3352 1.75237 0.409301
thorax -6.13902 0.771408 1.73204
lowerneck -6.91748 0.320458 -2.89555
upperneck -2.91217 0.649434 2.55735
head 0.236668 0.373834 1.2901
rclavicle 6.11263e-015 -7.15625e-015
rhumerus -18.752 -9.76051 -84.5267
rradius 74.6743
rwrist -5.43837
rhand -9.43866 -39.5658
rfingers 7.12502
rthumb 16.5241 -68.8822
lclavicle 6.11263e-015 -7.15625e-015
lhumerus -24.1632 9.16943 86.8947
lradius 83.2939
lwrist 17.5319
lhand -15.3851 -18.8061
lfingers 7.12502
lthumb 10.7933 10.8966
rfemur -75.168 -19.6161 23.5827
rtibia 117.203
rfoot -20.9838 0.746612
rtoes 26.2461
lfemur -72.1735 21.9282 -18.8552
ltibia 117.276
lfoot -28.6334 -13.891
ltoes -9.88406
88
root 1.20189 9.05919 -1.41141 -22.9552 0.113728 0.489189
lowerback 37.6451 2.45202 -3.63662
upperback 11.3016 1.78706 0.558946
thorax -6.08449 0.785441 1.82235
lowerneck -7.36799 0.382774 -2.77284
upperneck -2.71673 0.731476 2.30826
head 0.37039 0.413808 1.19595
rclavicle 2.93207e-015 -1.2921e-015
rhumerus -19.1377 -9.44745 -84.6264
rradius 75.9439
rwrist -5.02177
rhand -10.473 -37.6348
rfingers 7.12502
rthumb 15.5281 -67.0313
lclavicle 2.93207e-015 -1.2921e-015
lhumerus -24.8504 8.91754 87.2164
lradius 84.3083
lwrist 17.2892
lhand -16.1406 -18.9677
lfingers 7.12502
lthumb 10.0645 10.7716
rfemur -74.0645 -19.4734 23.3121
rtibia 116.995
rfoot -20.8681 0.859342
rtoes 26.637
lfemur -71.1597 22.2639 -18.4506
ltibia 117.138
lfoot -28.4999 -14.1323
ltoes -9.44247
89
root 1.20612 9.04083 -1.44848 -24.1699 0.875011 1.98452
lowerback 37.6177 2.65429 -5.02518
upperback 11.3784 1.52475 0.342894
thorax -5.97771 0.644376 2.41242
lowerneck -8.15471 0.427449 -2.82053
upperneck -2.30352 0.809852 2.27409
head 0.630261 0.456279 1.20459
rclavicle 7.15625e-015 -5.36719e-015
rhumerus -19.2353 -8.97374 -84.8096
rradius 76.8276
rwrist -4.69469
rhand -11.4056 -37.7106
rfingers 7.12502
rthumb 14.6298 -67.1745
lclavicle 7.15625e-015 -5.36719e-015
lhumerus -25.4328 8.58406 87.5386
lradius 85.3128
lwrist 17.4621
lhand -16.8323 -19.2979
lfingers 7.12502
lthumb 9.39717 10.4727
rfemur -72.9142 -20.4698 20.9467
rtibia 117.024
rfoot -20.8341 1.6993
rtoes 26.9479
lfemur -69.4266 21.4447 -19.9283
ltibia 116.773
lfoot -28.3899 -13.5525
ltoes -9.14727
